<?xml version="1.0" encoding="UTF-8"?>
<!-- Generator: Adobe Illustrator 21.1.0, SVG Export Plug-In . SVG Version: 6.00 Build 0)  -->
<svg version="1.1" id="Ebene_1" xmlns="http://www.w3.org/2000/svg" xmlns:xlink="http://www.w3.org/1999/xlink" x="0px" y="0px" viewBox="0 0 317.48032 65.19685" style="enable-background:new 0 0 317.48032 65.19685;" xml:space="preserve">
<style type="text/css">
	.st0{fill-rule:evenodd;clip-rule:evenodd;fill:#009767;}
	.st1{fill-rule:evenodd;clip-rule:evenodd;fill:#FFFFFF;}
	.st2{fill:#951981;}
	.st3{fill-rule:evenodd;clip-rule:evenodd;fill:#4A9045;}
	.st4{fill:#FFFFFF;}
	.st5{fill:#E3000F;}
	.st6{fill-rule:evenodd;clip-rule:evenodd;fill:#005C9F;}
</style>
<g id="XMLID_1_">
	<g id="XMLID_26_">
		<ellipse id="XMLID_30_" class="st0" cx="93.33471" cy="32.59851" rx="27.10055" ry="27.9195"/>
		<path id="XMLID_27_" class="st1" d="M107.28967,50.27905l-0.24334-1.42122l-0.16127-5.51754l-0.16222-2.21494l-0.24397-1.71357    l-0.4054-1.58887l-0.56842-1.25373l-0.89272-1.17022l-0.97302-0.79372l-1.01422-0.58391l-1.42058-0.62832l2.35305-1.50391    l1.70495-1.42138l1.05414-1.08671l0.72969-1.17038l0.48731-1.33771l0.32429-1.92194v-1.75653l-0.24318-1.33627l-0.40539-1.08751    l-0.56763-1.25373l-0.73048-1.16942l-0.97384-1.25518l-0.97366-0.9192l-1.13605-0.92002l-1.50073-0.87706l-1.17645-0.37586    l-2.0294-0.33515H96.6616H78.64815v37.86691h7.46423V36.15132h7.2217c0.96838,0,1.53904,0.1279,2.43479,0.50136    c0.62527,0.26264,0.98787,0.43494,1.50009,0.8785c0.57305,0.49593,0.80697,0.88489,1.17725,1.54606    c0.32748,0.58393,0.4624,0.94574,0.64875,1.58889c0.27589,0.94572,0.24939,1.5242,0.32507,2.50663    c0.11225,1.46339-0.06866,2.29671,0,3.76247c0.03976,0.84816-0.01405,1.3409,0.16126,2.17278    c0.11305,0.53409,0.13811,0.86317,0.4054,1.33787l0.56924,1.00336h7.46502L107.28967,50.27905z M100.27139,25.15919    c-0.00542,0.36644-0.00479,0.57689-0.06004,0.9395c-0.05221,0.33291-0.0843,0.52308-0.20358,0.83651    c-0.12933,0.33994-0.23855,0.51765-0.44596,0.81479c-0.22529,0.32189-0.3765,0.49114-0.66964,0.7538    c-0.17852,0.15839-0.29077,0.23551-0.48653,0.37586c-0.43574,0.31104-0.6853,0.49514-1.17645,0.70941    c-0.48412,0.21138-0.77647,0.30098-1.2989,0.37744l-1.13589,0.16671h-8.68203V19.51695h9.33141    c-0.48412,0.01948,0.76099,0.08814,1.21781,0.251c0.33768,0.12007,0.51923,0.21921,0.83107,0.39694    c0.31422,0.18091,0.54734,0.29156,0.77042,0.52308c0.3056,0.31263,0.39917,0.27751,0.58853,0.52244    c0.4873,0.62606,0.30402,0.3749,0.71021,1.02444c0.22066,0.35239,0.29317,0.58551,0.42488,0.98149    c0.14434,0.42885,0.21523,0.67908,0.26441,1.12821C100.28609,24.66102,100.27682,24.84193,100.27139,25.15919z"/>
	</g>
	<g id="XMLID_17_">
		<polygon id="XMLID_25_" class="st2" points="195.33626,4.72803 250.79971,4.72803 250.79971,60.46899 195.33626,60.46899     195.33626,4.72803   "/>
		<g id="XMLID_18_">
			<polygon id="XMLID_24_" class="st1" points="202.95648,40.3254 202.95648,27.24559 198.43144,27.24559 198.43144,24.58534      210.55164,24.58534 210.55164,27.24559 206.05008,27.24559 206.05008,40.3254    "/>
			<path id="XMLID_23_" class="st1" d="M214.25964,40.3254h-2.92354V28.91622h2.7099v1.62096     c0.46783-0.76562,0.88728-1.26778,1.25996-1.50634c0.37106-0.23773,0.79515-0.357,1.26761-0.357     c0.66902,0,1.31296,0.19017,1.93359,0.56906l-0.90756,2.62896c-0.49432-0.32892-0.95273-0.49354-1.37842-0.49354     c-0.41003,0-0.7578,0.11622-1.04312,0.34856c-0.28534,0.2323-0.50983,0.65257-0.67365,1.26057     c-0.16206,0.6082-0.24478,1.8814-0.24478,3.81868V40.3254z"/>
			<path id="XMLID_20_" class="st1" d="M221.94695,32.43326l-2.64621-0.48348c0.29938-1.11322,0.814-1.93807,1.54369-2.47296     c0.72986-0.53473,1.81352-0.80298,3.25119-0.80298c1.30658,0,2.2796,0.15983,2.91891,0.47789     c0.63933,0.31806,1.08832,0.72266,1.34874,1.21235c0.26042,0.49036,0.39136,1.3893,0.39136,2.69827l-0.04201,3.51848     c0,1.00191,0.0452,1.74024,0.13875,2.21573c0.09357,0.47566,0.26665,0.98548,0.52228,1.52884h-2.90182     c-0.07632-0.19799-0.16989-0.49114-0.28055-0.88091c-0.04837-0.1769-0.0843-0.29314-0.10458-0.34998     c-0.49896,0.50584-1.03226,0.88487-1.59972,1.13749c-0.56763,0.2526-1.17262,0.3789-1.81816,0.3789     c-1.1351,0-2.03018-0.31822-2.68501-0.95514c-0.65337-0.63612-0.98085-1.4415-0.98085-2.41452     c0-0.64315,0.14978-1.217,0.44756-1.72142c0.29779-0.50518,0.71564-0.8911,1.25359-1.15934     c0.53809-0.26825,1.31454-0.50282,2.32799-0.70241c1.36755-0.26505,2.31407-0.5122,2.84097-0.74069v-0.30481     c0-0.5871-0.13875-1.00496-0.41785-1.25516c-0.27751-0.24956-0.80298-0.37506-1.57642-0.37506     c-0.52084,0-0.92928,0.10762-1.22084,0.32189C222.36479,31.51867,222.12769,31.89531,221.94695,32.43326z M225.87305,34.87349     c-0.37408,0.12869-0.96823,0.28228-1.78062,0.46161c-0.81241,0.17851-1.3441,0.35383-1.59351,0.52547     c-0.3821,0.2791-0.57225,0.63293-0.57225,1.0626c0,0.42185,0.1528,0.78669,0.4584,1.09454     c0.3056,0.3072,0.69377,0.46079,1.16623,0.46079c0.52707,0,1.03082-0.17849,1.50952-0.53631     c0.35542-0.27128,0.58774-0.60419,0.69855-0.99794c0.07632-0.25739,0.11368-0.74773,0.11368-1.4696V34.87349z"/>
			<path id="XMLID_19_" class="st1" d="M231.4444,28.91622h2.6882v1.5563c0.96521-1.19832,2.11435-1.79868,3.44598-1.79868     c0.70941,0,1.32224,0.15041,1.84467,0.45139c0.51924,0.30018,0.94637,0.75476,1.28008,1.36358     c0.48651-0.60882,1.01039-1.0634,1.57338-1.36358c0.56123-0.30098,1.16319-0.45139,1.80251-0.45139     c0.81241,0,1.49994,0.17069,2.06294,0.50982c0.56123,0.33994,0.98228,0.8389,1.25978,1.4969     c0.20119,0.48651,0.30258,1.27321,0.30258,2.35992v7.28492h-2.92371v-6.51068c0-1.13046-0.10124-1.85935-0.30241-2.18843     c-0.27129-0.42873-0.68929-0.64395-1.25214-0.64395c-0.41003,0-0.79515,0.12869-1.15697,0.38672     c-0.3618,0.25723-0.62367,0.63373-0.7827,1.13126c-0.16063,0.49657-0.24014,1.28167-0.24014,2.35449v5.4706h-2.92371v-6.24324     c0-1.10795-0.05139-1.82359-0.15584-2.14484c-0.10458-0.32189-0.26521-0.56124-0.48347-0.71883     c-0.21828-0.15743-0.51447-0.23615-0.89032-0.23615c-0.45058,0-0.85599,0.1255-1.2162,0.37506     c-0.36182,0.251-0.61903,0.61201-0.77504,1.08368c-0.15584,0.47246-0.23375,1.25516-0.23375,2.34904v5.53528h-2.92372V28.91622z"/>
		</g>
	</g>
	<g id="XMLID_14_">
		<ellipse id="XMLID_16_" class="st3" cx="29.74228" cy="32.59811" rx="26.90759" ry="27.71991"/>
		<path id="XMLID_15_" class="st4" d="M13.91811,48.42895c0.83172,0.50839,1.29731,0.79995,2.13143,1.3037    c0.64795,0.39135,1.00576,0.62365,1.66535,0.99474c0.72809,0.41003,1.14292,0.63772,1.89831,0.99474    c0.92624,0.4367,1.46896,0.64411,2.43097,0.9949c0.98628,0.36021,1.54688,0.56282,2.56429,0.82326    c0.84737,0.21683,1.33084,0.33052,2.19849,0.44596c1.08224,0.14658,1.70431,0.15901,2.79662,0.13731    c1.17324-0.02187,1.84529-0.04838,2.99683-0.27447c1.13206-0.22146,1.7511-0.45218,2.83094-0.85759    c0.98548-0.36963,1.52804-0.6176,2.46434-1.09772c0.8124-0.41642,1.26315-0.67061,2.031-1.16639    c0.64251-0.41482,1.00576-0.64874,1.59829-1.13206c0.77264-0.62989,1.21157-1.00416,1.83221-1.78382    c0.60499-0.76083,0.87004-1.25357,1.29875-2.1268c0.33611-0.6861,0.5052-1.08831,0.73209-1.81816    c0.20501-0.6564,0.29858-1.03689,0.39997-1.71517c0.156-1.04633,0.13173-1.65593,0.06627-2.71151    c-0.04982-0.80777-0.08031-1.26937-0.26585-2.05832c-0.18233-0.77182-0.34696-1.19433-0.66662-1.92097    c-0.29938-0.68147-0.49194-1.05877-0.89894-1.681c-0.38112-0.58311-0.62447-0.89814-1.09916-1.40637    c-0.50919-0.54575-0.8429-0.8108-1.43144-1.26921c-0.68929-0.53489-1.09613-0.82342-1.86494-1.23504    c-0.72187-0.38672-1.16399-0.53794-1.93184-0.82326c-1.14227-0.42728-1.82438-0.5582-2.997-0.89191    c-1.48748-0.42408-2.33197-0.64235-3.82951-1.02907c-1.01119-0.26042-1.59446-0.36341-2.59702-0.65179    c-1.0377-0.29792-1.66297-0.38207-2.63136-0.85757c-0.76003-0.37427-1.18971-0.61441-1.83126-1.16639    c-0.47406-0.40859-0.76177-0.64093-1.09853-1.16639c-0.3361-0.52388-0.48332-0.86541-0.60036-1.47503    c-0.11384-0.59255-0.08255-0.94812,0-1.54369c0.09357-0.66582,0.19416-1.04935,0.49897-1.64669    c0.26346-0.51444,0.46001-0.79196,0.86621-1.20213c0.35622-0.35862,0.58854-0.54256,1.03306-0.78895    c0.48332-0.26825,0.79755-0.34151,1.33149-0.48027c0.64793-0.16685,1.03147-0.19017,1.69808-0.24014    c0.48029-0.03593,0.75236-0.04982,1.23265-0.03433c0.73288,0.02345,1.14691,0.09516,1.86494,0.24014    c0.76785,0.156,1.18571,0.31022,1.93104,0.54894c0.85535,0.27431,1.3441,0.42249,2.16432,0.78893    c0.87627,0.39135,1.33165,0.69233,2.16592,1.1678c0.68211,0.38833,1.06484,0.61139,1.73066,1.02765    c0.73911,0.46304,1.18906,0.6845,1.86494,1.23646l2.39744,1.95374v0.03433v-6.79218l-1.73162-1.16623    c-0.74773-0.50376-1.1897-0.76418-1.99747-1.16639c-0.80697-0.40237-1.29412-0.5598-2.13079-0.89191    c-0.77487-0.3072-1.20519-0.49897-1.99891-0.75478c-0.92002-0.29457-1.44932-0.43492-2.39744-0.61742    c-0.74677-0.14338-1.17485-0.19496-1.93104-0.27447c-0.82884-0.08718-1.2989-0.12933-2.13238-0.13716    c-0.70095-0.00623-1.10012-0.00942-1.79788,0.06706c-0.81544,0.09197-1.26922,0.20901-2.06437,0.41322    c-1.06195,0.27288-1.64827,0.48029-2.66409,0.89191c-0.76945,0.31184-1.2194,0.46464-1.932,0.89191    c-0.82006,0.49114-1.22467,0.86541-1.93104,1.50936c-0.57928,0.52707-0.89271,0.84194-1.39871,1.4407    c-0.57465,0.67987-0.85679,1.10092-1.33164,1.85249c-0.48955,0.77488-0.79052,1.20838-1.13286,2.0583    c-0.33132,0.82324-0.44978,1.32063-0.5994,2.19546c-0.1849,1.08368-0.13332,1.71038-0.13332,2.8129    c0,0.55038,0.01086,0.67349,0.0669,1.09917c0.10458,0.79691,0.26521,1.23183,0.5333,1.98964    c0.29395,0.83108,0.50599,1.28646,0.93167,2.0583c0.56922,1.02907,0.94269,1.59829,1.73242,2.46993    c0.52467,0.58008,0.84737,0.89032,1.46417,1.37218c0.92545,0.72029,1.54672,0.99155,2.59846,1.50937    c1.00816,0.49577,1.59127,0.76402,2.66409,1.09917c1.0907,0.33994,1.73848,0.41642,2.86351,0.616    c1.13606,0.20262,1.79549,0.20262,2.93074,0.41163c0.96823,0.17931,1.52644,0.2494,2.46433,0.54876    c1.02445,0.3291,1.64284,0.48973,2.52997,1.09775c0.50838,0.34936,0.79755,0.563,1.19912,1.03083    c0.46624,0.54096,0.73288,0.89175,0.93327,1.57642c0.15041,0.51765,0.15664,0.83571,0.13253,1.37204    c-0.03895,0.86237-0.16685,1.38306-0.59876,2.1284c-0.48651,0.83747-0.97686,1.20071-1.79788,1.71531    c-0.73528,0.45985-1.23105,0.58936-2.06612,0.82328c-0.88633,0.24797-1.4118,0.31806-2.33021,0.3773    c-1.16878,0.07648-1.84467,0.03752-2.9978-0.17149c-0.87467-0.15903-1.35416-0.33212-2.19769-0.61744    c-1.0642-0.35862-1.65833-0.59573-2.66409-1.09773c-0.85918-0.42887-1.32925-0.70638-2.13079-1.23504    c-0.64395-0.42568-0.99394-0.68754-1.59813-1.16623c-0.70255-0.55677-1.08064-0.89351-1.73241-1.50936    c-1.08447-1.02604-1.22323-1.4035-2.59766-2.8145l-0.03209-0.03273l-0.03353-0.06866v8.61034    C13.87755,48.40724,13.91811,48.42895,13.91811,48.42895z"/>
	</g>
	<g id="XMLID_5_">
		<ellipse id="XMLID_13_" class="st5" cx="287.51273" cy="32.59807" rx="27.13289" ry="27.95232"/>
		<g id="XMLID_6_">
			<path id="XMLID_9_" class="st1" d="M269.0517,24.75922h5.97977c1.1843,0,2.06693,0.04996,2.64844,0.15137     c0.58249,0.10123,1.10254,0.31327,1.56174,0.63453c0.45923,0.32125,0.84195,0.74853,1.14755,1.28326     c0.3064,0.53489,0.45999,1.13365,0.45999,1.79788c0,0.71883-0.18872,1.38002-0.56522,1.98022     c-0.37585,0.60036-0.88647,1.05093-1.53043,1.35192c0.90756,0.27447,1.60611,0.74071,2.09406,1.4003     c0.48813,0.6596,0.73129,1.43607,0.73129,2.32639c0,0.70173-0.15744,1.38465-0.47391,2.04728     c-0.31583,0.66423-0.74854,1.19289-1.29587,1.59047c-0.54654,0.39758-1.22244,0.63932-2.02463,0.73129     c-0.50375,0.05619-1.71756,0.09053-3.64172,0.10602h-5.09106V24.75922z M272.07904,27.31808v3.54881h1.97559     c1.17581,0,1.90549-0.01708,2.19003-0.05141c0.51605-0.06243,0.9216-0.24637,1.21698-0.5504     c0.29556-0.30256,0.44293-0.70333,0.44293-1.19912c0-0.47404-0.12711-0.85916-0.38129-1.15535     c-0.255-0.29794-0.63309-0.47725-1.13589-0.53952c-0.29938-0.03435-1.15775-0.05301-2.57596-0.05301H272.07904z      M272.07904,33.4272v4.12906h2.7966c1.08911,0,1.77902-0.0313,2.0722-0.09357c0.44913-0.08432,0.81479-0.29012,1.09692-0.61744     c0.28229-0.3259,0.42422-0.76418,0.42422-1.31137c0-0.4632-0.10919-0.85615-0.32748-1.18044     c-0.21747-0.32125-0.5325-0.5582-0.94412-0.70478c-0.41083-0.14817-1.30432-0.22146-2.67877-0.22146H272.07904z"/>
			<path id="XMLID_8_" class="st1" d="M291.27914,40.16014v-1.66998c-0.3952,0.59413-0.91364,1.06819-1.55853,1.42056     c-0.64316,0.35241-1.32303,0.5285-2.03787,0.5285c-0.72827,0-1.38226-0.16524-1.96155-0.49575     c-0.57925-0.32908-0.99792-0.79372-1.25674-1.39088c-0.259-0.59716-0.38834-1.42202-0.38834-2.47616v-7.08072h2.8605v5.13946     c0,1.57322,0.05301,2.53843,0.15903,2.89241c0.10522,0.35397,0.29776,0.63628,0.57767,0.8421     c0.27911,0.20725,0.63388,0.31022,1.06421,0.31022c0.49115,0,0.93088-0.13873,1.32077-0.4148     c0.38815-0.27751,0.65402-0.62207,0.79755-1.03226c0.1434-0.41163,0.21445-1.41722,0.21445-3.01712v-4.72001h2.86047v11.16443     H291.27914z"/>
			<path id="XMLID_7_" class="st1" d="M295.84631,37.01833l2.88156-0.45074c0.12231,0.57082,0.37027,1.00272,0.74374,1.29891     c0.37347,0.29634,0.89734,0.44292,1.57019,0.44292c0.74054,0,1.29892-0.14035,1.67221-0.42105     c0.25195-0.19655,0.37668-0.46001,0.37668-0.78909c0-0.22449-0.06787-0.41003-0.20358-0.5582     c-0.1434-0.14035-0.46304-0.26968-0.95963-0.38816c-2.31329-0.52707-3.77969-1.00735-4.39874-1.44246     c-0.85678-0.60499-1.28564-1.44373-1.28564-2.51817c0-0.96822,0.37027-1.78221,1.11179-2.4434     c0.74149-0.6596,1.88983-0.99011,3.44757-0.99011c1.48206,0,2.58362,0.251,3.30484,0.74997     c0.72043,0.50056,1.2178,1.23967,1.4899,2.21891l-2.69363,0.51607c-0.11688-0.43654-0.33676-0.77184-0.66199-1.00576     c-0.32431-0.23232-0.78735-0.3492-1.38849-0.3492c-0.7594,0-1.30276,0.1092-1.63025,0.32748     c-0.21906,0.1528-0.32809,0.35399-0.32809,0.59876c0,0.21044,0.09579,0.38975,0.2861,0.53793     c0.25964,0.19495,1.15378,0.47246,2.68503,0.82948c1.53043,0.35862,2.59927,0.79675,3.20663,1.31599     c0.60034,0.52547,0.90054,1.25836,0.90054,2.19865c0,1.02285-0.41562,1.90231-1.24591,2.63822     c-0.83029,0.73608-2.05829,1.10394-3.68533,1.10394c-1.47662,0-2.64542-0.30703-3.50601-0.92143     C296.67502,38.90498,296.11136,38.07231,295.84631,37.01833z"/>
		</g>
	</g>
	<g id="XMLID_2_">
		<rect id="XMLID_4_" x="130.01527" y="4.72803" class="st6" width="55.7408" height="55.74096"/>
		<path id="XMLID_3_" class="st4" d="M139.22661,37.14926c0.04216,1.01199,0.12328,1.58025,0.25261,2.58521    c0.12007,0.9387,0.15199,1.47742,0.37825,2.39584c0.23615,0.95977,0.44739,1.48206,0.82007,2.39664    c0.34856,0.85599,0.56221,1.33548,1.00894,2.14404c0.54016,0.97989,0.87787,1.52261,1.57642,2.39648    c0.72729,0.91076,1.20998,1.36996,2.08083,2.14404c0.74693,0.66343,1.19049,1.01821,2.01775,1.57722    c1.00415,0.67668,1.61137,1.00815,2.7123,1.51335c1.1873,0.54495,1.88586,0.8116,3.15283,1.13509    c1.20615,0.30798,1.91093,0.42025,3.15285,0.50438c1.20294,0.08113,1.88905,0.03818,3.09056-0.06305    c1.2887-0.10921,2.02701-0.17851,3.27913-0.50439c1.53746-0.40077,2.37558-0.77663,3.78354-1.51335    c1.5226-0.79755,2.3647-1.32765,3.65723-2.45971c1.2186-1.06739,1.82758-1.77681,2.77473-3.08977    c0.72346-1.00256,1.10013-1.60053,1.63966-2.71231c0.55116-1.13365,0.78429-1.81576,1.13507-3.02655    c0.28149-0.96838,0.41866-1.52578,0.56763-2.52292c0.12471-0.83028,0.14658-1.30514,0.18938-2.14404    c0.05843-1.15459,0-1.80794,0-2.96411V9.21251h-8.63989v28.69294c0,0.70638-0.04758,1.11258-0.22066,1.79708    c-0.14737,0.58471-0.29539,0.89814-0.53554,1.45092c-0.23007,0.5293-0.36021,0.83188-0.66199,1.32462    c-0.31262,0.50903-0.52547,0.77567-0.91441,1.22945c-0.48189,0.56058-0.78287,0.85838-1.35593,1.32462    c-0.56363,0.45761-0.90356,0.69935-1.54512,1.04009c-0.59875,0.31806-0.96295,0.45298-1.60851,0.66183    c-0.64937,0.21124-1.02669,0.31184-1.70273,0.41019c-0.403,0.05923-0.63309,0.07792-1.0399,0.095    c-0.52869,0.02106-0.83046,0.02425-1.35593-0.03193c-0.76546-0.08113-1.18811-0.21366-1.92323-0.44133    c-0.53952-0.1675-0.84592-0.26345-1.35591-0.5044c-0.63931-0.30241-0.97223-0.53329-1.54512-0.94652    c-0.53169-0.38193-0.83507-0.60339-1.29268-1.07186c-0.41002-0.41865-0.61824-0.68067-0.94652-1.16639    c-0.29236-0.4335-0.42329-0.70175-0.66183-1.16718c-0.27144-0.52851-0.42888-0.82789-0.63086-1.38689    c-0.18633-0.51623-0.2791-0.81623-0.3781-1.35575c-0.08876-0.48651-0.07712-0.76961-0.1263-1.26155V9.27493h-8.82861v25.95015    C139.22661,35.97505,139.19548,36.39929,139.22661,37.14926z"/>
	</g>
</g>
</svg>